# xmcd CD database file
#
# Track frame offsets:
#	150
#	18000
#	36658
#	55548
#	71270
#	89824
#	106653
#	126935
#	144166
#	162140
#	178544
#	199498
#
# Disc length: 2838 seconds
#
# Revision: 0
# Processed by: cddbd v1.5.2PL0 Copyright (c) Steve Scherf et al.
# Submitted via: CDex 1.51
#
DISCID=9d0b140c
DTITLE=Lisen Elwin - Coming Home
DYEAR=2004
DGENRE=Country
TTITLE0=Early Morning Sun
TTITLE1=Coming Home
TTITLE2=Far Away From Me
TTITLE3=An Angels Point of View
TTITLE4=Songbird
TTITLE5=Raincoat
TTITLE6=Devil in the Sky
TTITLE7=Falling into You
TTITLE8=Everytime I reach You
TTITLE9=Love Still Makes Me Free
TTITLE10=Just the Way You Are
TTITLE11=Two Broken Hearts
EXTD=YEAR: 2004
EXTT0=
EXTT1=
EXTT2=
EXTT3=
EXTT4=
EXTT5=
EXTT6=
EXTT7=
EXTT8=
EXTT9=
EXTT10=
EXTT11=
PLAYORDER=
